<mxfile host="app.diagrams.net" modified="2021-10-08T09:38:32.073Z" agent="5.0 (Windows NT 10.0; Win64; x64) AppleWebKit/537.36 (KHTML, like Gecko) Chrome/94.0.4606.61 Safari/537.36" etag="50-xYujVCOlVzJo_VHbI" version="15.3.4" type="github" pages="2">
  <diagram id="BXt0OK11Ox3VDtzBCu5K" name="DataAccess">
    <mxGraphModel dx="782" dy="436" grid="1" gridSize="10" guides="1" tooltips="1" connect="1" arrows="1" fold="1" page="1" pageScale="1" pageWidth="827" pageHeight="1169" math="0" shadow="0">
      <root>
        <mxCell id="0" />
        <mxCell id="1" parent="0" />
      </root>
    </mxGraphModel>
  </diagram>
  <diagram id="xmizwKpiy0FQQQOybZDh" name="任务运行流程">
    <mxGraphModel dx="782" dy="436" grid="1" gridSize="10" guides="1" tooltips="1" connect="1" arrows="1" fold="1" page="1" pageScale="1" pageWidth="827" pageHeight="1169" math="0" shadow="0">
      <root>
        <mxCell id="cJ2JIOL3ZnA84vjUlRwL-0" />
        <mxCell id="cJ2JIOL3ZnA84vjUlRwL-1" parent="cJ2JIOL3ZnA84vjUlRwL-0" />
        <mxCell id="cJ2JIOL3ZnA84vjUlRwL-2" value="任务执行" style="shape=step;perimeter=stepPerimeter;whiteSpace=wrap;html=1;fixedSize=1;hachureGap=4;pointerEvents=0;fillColor=#f5f5f5;strokeColor=#666666;fontColor=#333333;" vertex="1" parent="cJ2JIOL3ZnA84vjUlRwL-1">
          <mxGeometry x="110" y="70" width="120" height="80" as="geometry" />
        </mxCell>
        <mxCell id="cJ2JIOL3ZnA84vjUlRwL-3" value="质量检查" style="shape=step;perimeter=stepPerimeter;whiteSpace=wrap;html=1;fixedSize=1;hachureGap=4;pointerEvents=0;fillColor=#dae8fc;strokeColor=#6c8ebf;" vertex="1" parent="cJ2JIOL3ZnA84vjUlRwL-1">
          <mxGeometry x="280" y="70" width="120" height="80" as="geometry" />
        </mxCell>
        <mxCell id="cJ2JIOL3ZnA84vjUlRwL-4" value="健康检查" style="shape=step;perimeter=stepPerimeter;whiteSpace=wrap;html=1;fixedSize=1;hachureGap=4;pointerEvents=0;fillColor=#d5e8d4;strokeColor=#82b366;" vertex="1" parent="cJ2JIOL3ZnA84vjUlRwL-1">
          <mxGeometry x="460" y="70" width="120" height="80" as="geometry" />
        </mxCell>
        <mxCell id="cJ2JIOL3ZnA84vjUlRwL-5" value="数据资源统计" style="shape=step;perimeter=stepPerimeter;whiteSpace=wrap;html=1;fixedSize=1;hachureGap=4;pointerEvents=0;fillColor=#ffe6cc;strokeColor=#d79b00;" vertex="1" parent="cJ2JIOL3ZnA84vjUlRwL-1">
          <mxGeometry x="630" y="70" width="120" height="80" as="geometry" />
        </mxCell>
        <mxCell id="cJ2JIOL3ZnA84vjUlRwL-6" value="任务调度脚本" style="rounded=0;whiteSpace=wrap;html=1;hachureGap=4;pointerEvents=0;" vertex="1" parent="cJ2JIOL3ZnA84vjUlRwL-1">
          <mxGeometry x="110" y="160" width="120" height="120" as="geometry" />
        </mxCell>
        <mxCell id="cJ2JIOL3ZnA84vjUlRwL-7" value="质量检查配置：&lt;br&gt;&lt;br&gt;&lt;br&gt;数据的数量、&lt;br&gt;非空检查、&lt;br&gt;正则检查" style="rounded=0;whiteSpace=wrap;html=1;hachureGap=4;pointerEvents=0;" vertex="1" parent="cJ2JIOL3ZnA84vjUlRwL-1">
          <mxGeometry x="280" y="160" width="120" height="120" as="geometry" />
        </mxCell>
        <mxCell id="cJ2JIOL3ZnA84vjUlRwL-8" value="元数据检查、&lt;br&gt;血缘检查、&lt;br&gt;权限检查、&lt;br&gt;风险检查" style="rounded=0;whiteSpace=wrap;html=1;hachureGap=4;pointerEvents=0;" vertex="1" parent="cJ2JIOL3ZnA84vjUlRwL-1">
          <mxGeometry x="460" y="160" width="120" height="120" as="geometry" />
        </mxCell>
        <mxCell id="cJ2JIOL3ZnA84vjUlRwL-9" value="空间大小和字段条数" style="rounded=0;whiteSpace=wrap;html=1;hachureGap=4;pointerEvents=0;" vertex="1" parent="cJ2JIOL3ZnA84vjUlRwL-1">
          <mxGeometry x="630" y="160" width="120" height="120" as="geometry" />
        </mxCell>
      </root>
    </mxGraphModel>
  </diagram>
</mxfile>
